<svg width="1491" height="621" viewBox="0 0 1491 621" fill="none" xmlns="http://www.w3.org/2000/svg">
<path d="M275.879 24.2479L0 30.462V575.95L755.524 575.951L755.389 17.1497L275.879 24.2479Z" fill="#FCB826"/>
<path d="M406 22.4926L427.062 43.7087C467.604 92.7633 489.243 129.08 491.977 152.658C493.146 170.9 450.721 170.853 443.064 189.067L495.706 237.956C515.732 227.184 553.793 232.154 579.36 234.271C613.972 240.228 632.692 248.475 635.522 259.01C637.572 266.151 635.229 274.266 628.493 283.355C586.543 327.504 567.074 349.442 570.085 349.168C565.921 358.798 566.04 365.301 570.444 368.675C573.417 372.198 582.197 375.488 596.784 378.545C662.79 386.689 699.909 392.473 708.14 395.896C728.444 402.632 739.407 412.641 741.028 425.925C743.291 439.395 737.379 455.414 723.292 473.982C708.495 491.779 693.506 500.783 678.324 500.995C672.909 501.144 664.735 496.938 653.801 488.376C652.049 488.226 640.48 473.736 619.092 444.908C614.971 440.21 610.568 436.26 605.885 433.059C600.134 429.391 591.206 431.062 579.099 438.071C561.424 454.783 547.664 473.267 537.821 493.523C528.236 507.718 522.051 535.806 519.268 577.787L1025 577.787V16.9946H715.5L406 22.4926Z" fill="#00AEC7"/>
<path d="M754 16.9946H1491V576.258H754V16.9946Z" fill="#00AEC7"/>
<path d="M411.791 183.599L410.737 183.681C408.757 183.316 404.303 186.735 397.375 193.937C391.113 190.931 385.343 190.821 380.064 193.609C358.171 202.736 344.12 210.045 337.91 215.536C330.097 219.248 320.418 235.838 308.875 265.306C302.796 283.306 303.408 297.703 310.711 308.495C312.654 313.166 324.361 322.916 345.834 337.744C347.477 338.698 351.343 343.883 357.431 353.299C359.884 355.725 363.366 357.983 367.874 360.071L369.763 362.777C369.071 365.4 368.085 367.27 366.807 368.386L358.712 372.454L355.287 377.117C349.213 379.485 345.87 381.387 345.259 382.824C343.911 384.247 342.393 387.287 340.703 391.941C325.084 406.017 315.241 415.86 311.174 421.47C303.833 431.07 299.204 438.391 297.287 443.432C293.304 451.563 289.697 463.333 286.467 478.742L271 576.787H477.285C481.927 560.301 479.523 536.552 477.285 518.232C473.496 493.898 466.44 467.734 456.116 439.74L457.254 426.534L463.266 419.341L462.536 415.736L467.785 412.138L465.57 407.8L469.795 404.111L455.517 385.365C459.463 376.102 461.932 369.708 462.924 366.182C464.029 363.76 465.388 355.937 467 342.712C467.569 340.027 468.938 336.765 471.107 332.928C473.945 328.145 477.015 324.539 480.318 322.11C494.001 316.181 500.75 312.732 500.565 311.764C504.716 307.695 506.534 303.926 506.018 300.456C505.632 297.725 504.196 295.166 501.71 292.78C499.734 290.743 496.369 288.073 491.616 284.771C490.724 282.189 489.749 280.475 488.692 279.628C487.799 278.785 486.18 278.156 483.835 277.739C484.928 270.883 483.118 266.745 478.403 265.326C483.801 259.989 485.185 254.827 482.555 249.841C481.338 248.408 479.902 247.466 478.249 247.013C463.744 244.638 455.768 242.333 454.322 240.098C453.174 239.016 452.381 237.899 451.941 236.747C451.471 232.451 450.711 230.039 449.659 229.51L427.906 211.157C429.622 204.468 427.962 197.817 422.926 191.204C419.873 186.818 416.162 184.283 411.791 183.599Z" fill="black"/>
<path d="M422.125 200.445L438.47 182.933L491.007 231.928L474.663 249.441L422.125 200.445Z" fill="#222B32"/>
<path d="M447.842 244.702L440.651 237.8L433.459 230.898C411.447 255.883 389.436 280.867 367.424 305.852C371.907 309.712 376.389 313.572 380.872 317.432L447.842 244.702Z" fill="#7D8B96"/>
<path d="M417 215.764L423.924 208.345L430.848 200.927C444.046 213.234 457.243 225.542 470.441 237.85C465.825 242.796 461.209 247.742 456.594 252.688C443.396 240.38 430.198 228.072 417 215.764Z" fill="white"/>
<path d="M661.143 203.011L665.995 200.122L670.848 197.233C672.164 199.443 673.481 201.653 674.797 203.863C671.562 205.788 668.327 207.714 665.092 209.64C663.775 207.431 662.459 205.221 661.143 203.011Z" fill="#313440"/>
<path d="M651.801 201.95L663.081 195.235L674.361 188.52C675.944 191.178 677.528 193.835 679.111 196.493C671.591 200.97 664.071 205.446 656.551 209.923C654.968 207.265 653.384 204.608 651.801 201.95Z" fill="#3F434F"/>
<path d="M640.109 189.411L654.334 180.943L668.559 172.475C672.167 178.531 675.775 184.588 679.383 190.644C669.9 196.289 660.416 201.935 650.933 207.58C647.325 201.524 643.717 195.467 640.109 189.411Z" fill="#292B37"/>
<path d="M617.404 119.107C603.438 127.42 598.809 145.572 607.16 159.592C607.462 160.099 607.895 160.69 608.328 161.281C610.778 164.51 613.86 167.241 617.343 169.289C621.106 171.534 626.76 174.917 631.313 177.54C633.412 178.756 636.517 180.1 640.661 187.735L653.672 179.991L666.712 172.227C661.954 164.918 662.269 161.578 662.199 159.155C662.062 153.903 661.798 147.352 661.616 142.975C661.457 138.908 660.523 134.898 658.85 131.206C658.536 130.545 658.223 129.883 657.921 129.376C649.569 115.356 631.369 110.794 617.404 119.107Z" fill="#FDC00F"/>
<path d="M645.84 184.692L640.678 187.765C636.516 180.1 633.429 178.786 631.33 177.57C626.776 174.947 621.141 171.594 617.378 169.349C613.876 167.271 610.794 164.54 608.345 161.31C607.912 160.719 607.479 160.128 607.177 159.621C601.331 149.807 601.847 137.984 607.44 128.916C604.72 137.243 605.445 146.671 610.279 154.785C610.598 155.322 611.049 155.943 611.547 156.575C614.121 160.014 617.417 162.901 621.115 165.104C625.121 167.487 631.131 171.062 635.947 173.852C638.129 175.139 641.459 176.592 645.84 184.692Z" fill="#E2A305"/>
<path d="M670.008 173.215C670.239 173.603 670.118 174.078 669.73 174.309L641.202 191.292C640.814 191.523 640.338 191.402 640.107 191.014L639.236 189.553C639.005 189.165 639.126 188.689 639.514 188.458L668.012 171.494C668.4 171.262 668.876 171.383 669.107 171.771L669.978 173.233L670.008 173.215Z" fill="#3F434F"/>
<path d="M674.254 180.576C674.485 180.964 674.364 181.44 673.976 181.67L645.448 198.653C645.06 198.884 644.584 198.763 644.353 198.376L643.482 196.914C643.251 196.526 643.372 196.05 643.76 195.819L672.258 178.855C672.646 178.623 673.122 178.744 673.353 179.132L674.224 180.594L674.254 180.576Z" fill="#3F434F"/>
<path d="M676.871 184.961C677.102 185.349 676.981 185.825 676.593 186.056L648.065 203.039C647.677 203.269 647.201 203.148 646.97 202.761L646.099 201.299C645.868 200.911 645.989 200.436 646.377 200.205L674.876 183.24C675.263 183.009 675.74 183.13 675.971 183.517L676.841 184.979L676.871 184.961Z" fill="#3F434F"/>
<path d="M638.694 117.588C627.629 115.164 618.257 121.349 617.887 121.609C616.819 122.327 616.552 123.778 617.251 124.817C617.968 125.885 619.421 126.152 620.46 125.453C620.549 125.399 628.554 120.109 637.702 122.098C643.75 123.428 648.936 127.655 653.207 134.689C653.793 135.673 654.989 136.053 656.033 135.633C656.17 135.592 656.289 135.521 656.379 135.468C657.483 134.81 657.815 133.4 657.158 132.297C652.211 124.129 645.992 119.184 638.694 117.588Z" fill="#FED96F"/>
<path d="M1387.46 536.895L1385.75 532.824C1383.01 524.26 1383.49 516.068 1387.19 508.248C1390.93 500.409 1397.19 494.848 1405.96 491.564C1414.52 488.828 1422.72 489.31 1430.54 493.008C1433.06 494.21 1435.39 495.724 1437.55 497.55L1440.59 500.505C1442.52 502.625 1444.16 505.022 1445.51 507.697C1449.44 516.021 1450.05 524.285 1447.34 532.49C1444.62 540.694 1439.21 546.968 1431.09 551.311C1422.76 555.239 1414.5 555.847 1406.29 553.135C1398.08 550.423 1391.81 545.01 1387.46 536.895Z" fill="#FDD908"/>
<path d="M1391.97 534.536L1390.52 531.103C1388.21 523.879 1388.62 516.969 1391.74 510.372C1394.9 503.761 1400.18 499.07 1407.57 496.301C1414.8 493.993 1421.71 494.399 1428.31 497.518C1430.43 498.533 1432.4 499.81 1434.22 501.349L1436.79 503.841C1438.41 505.63 1439.79 507.652 1440.94 509.908C1444.25 516.93 1444.76 523.9 1442.48 530.821C1440.19 537.741 1435.62 543.033 1428.77 546.697C1421.75 550.01 1414.77 550.523 1407.85 548.235C1400.93 545.947 1395.64 541.381 1391.97 534.536Z" fill="#EEAA01"/>
<path d="M1392.56 534.226L1391.15 530.876C1388.9 523.829 1389.3 517.088 1392.34 510.653C1395.42 504.203 1400.57 499.627 1407.78 496.924C1414.83 494.673 1421.57 495.069 1428.01 498.113C1430.08 499.102 1432 500.348 1433.78 501.85L1436.29 504.282C1437.87 506.026 1439.22 507.998 1440.33 510.199C1443.57 517.049 1444.07 523.85 1441.83 530.601C1439.6 537.352 1435.15 542.515 1428.46 546.089C1421.61 549.321 1414.81 549.821 1408.06 547.59C1401.3 545.358 1396.14 540.903 1392.56 534.226Z" fill="#FFB70D"/>
<path d="M1407.79 510.047L1409 512.524C1407.89 513.763 1407.21 515.208 1406.94 516.86C1406.68 518.512 1406.93 520.127 1407.7 521.704C1408.19 522.715 1408.86 523.58 1409.69 524.3C1410.52 524.996 1411.43 525.514 1412.42 525.856C1413.41 526.198 1414.45 526.344 1415.56 526.295C1416.64 526.258 1417.68 525.993 1418.69 525.502L1418.92 525.394C1419.24 525.299 1419.55 525.315 1419.85 525.441C1420.16 525.567 1420.39 525.79 1420.55 526.11C1420.71 526.456 1420.73 526.811 1420.61 527.178C1420.48 527.544 1420.25 527.811 1419.9 527.979C1419.55 528.147 1419.2 528.167 1418.83 528.041C1418.47 527.914 1418.2 527.678 1418.03 527.333L1411.89 530.319C1412.27 531.107 1412.76 531.799 1413.36 532.394C1413.92 532.976 1414.55 533.474 1415.27 533.886C1415.96 534.286 1416.69 534.582 1417.49 534.774C1418.27 534.942 1419.07 534.994 1419.9 534.929L1421.26 537.739L1427.48 534.718L1425.95 531.575C1426.82 530.359 1427.33 528.998 1427.48 527.492C1427.65 526.01 1427.38 524.555 1426.69 523.125C1426.19 522.114 1425.53 521.249 1424.69 520.529C1423.86 519.833 1422.96 519.315 1421.97 518.973C1420.98 518.631 1419.93 518.485 1418.83 518.534C1417.75 518.571 1416.7 518.836 1415.69 519.328L1415.47 519.435C1415.15 519.53 1414.83 519.502 1414.51 519.352C1414.21 519.225 1413.98 519.014 1413.84 518.719C1413.67 518.374 1413.64 518.006 1413.76 517.615C1413.89 517.248 1414.12 516.981 1414.47 516.813C1414.81 516.645 1415.17 516.637 1415.55 516.788C1415.92 516.915 1416.19 517.151 1416.35 517.496L1422.49 514.51C1421.8 513.081 1420.81 511.961 1419.53 511.15C1418.25 510.339 1416.87 509.901 1415.37 509.836L1414 507.026L1407.79 510.047Z" fill="#EEAA01"/>
<path d="M1407.42 510.611L1408.62 513.088C1407.52 514.326 1406.83 515.771 1406.57 517.423C1406.31 519.075 1406.56 520.69 1407.33 522.267C1407.82 523.278 1408.48 524.143 1409.32 524.864C1410.15 525.559 1411.06 526.078 1412.05 526.42C1413.04 526.761 1414.08 526.908 1415.19 526.858C1416.27 526.821 1417.31 526.557 1418.32 526.065L1418.55 525.957C1418.87 525.863 1419.18 525.878 1419.48 526.004C1419.79 526.13 1420.02 526.353 1420.17 526.674C1420.34 527.019 1420.36 527.375 1420.24 527.741C1420.11 528.107 1419.87 528.375 1419.53 528.542C1419.18 528.71 1418.83 528.731 1418.46 528.604C1418.09 528.478 1417.83 528.242 1417.66 527.897L1411.52 530.882C1411.9 531.671 1412.39 532.363 1412.99 532.957C1413.54 533.54 1414.18 534.037 1414.9 534.449C1415.58 534.849 1416.32 535.145 1417.12 535.338C1417.9 535.506 1418.7 535.557 1419.53 535.493L1420.89 538.303L1427.11 535.282L1425.58 532.139C1426.45 530.922 1426.96 529.561 1427.11 528.055C1427.28 526.573 1427.01 525.118 1426.31 523.688C1425.82 522.678 1425.16 521.813 1424.32 521.092C1423.49 520.397 1422.58 519.878 1421.6 519.537C1420.61 519.195 1419.56 519.048 1418.45 519.097C1417.38 519.135 1416.33 519.399 1415.32 519.891L1415.1 519.999C1414.78 520.093 1414.46 520.065 1414.14 519.915C1413.84 519.789 1413.61 519.578 1413.47 519.282C1413.3 518.937 1413.27 518.569 1413.39 518.178C1413.51 517.811 1413.75 517.544 1414.1 517.376C1414.44 517.209 1414.8 517.2 1415.18 517.352C1415.55 517.478 1415.81 517.714 1415.98 518.059L1422.12 515.074C1421.43 513.644 1420.44 512.524 1419.16 511.713C1417.88 510.902 1416.49 510.464 1415 510.399L1413.63 507.589L1407.42 510.611Z" fill="#FDD908"/>
<path d="M961.465 128.968C957.495 133.156 952.027 139.323 951.755 139.926C951.515 140.464 952.009 141.306 952.347 140.962C952.573 140.733 953.638 141.814 953.789 142.447C953.873 142.853 954.004 142.949 954.459 142.979C954.931 142.992 955.471 143.427 957.255 145.088C958.466 146.217 959.432 147.202 959.384 147.251C959.335 147.3 958.814 147.141 958.243 146.901C956.205 146.055 952.404 146.569 950.137 147.983C948.858 148.756 946.775 150.64 946.002 151.718C943.28 155.427 943.341 161.652 946.141 166.736C949.139 172.175 955.464 176.827 962.633 178.825C967.895 180.298 977.31 180.442 983.723 179.146C985.899 178.708 987.165 178.341 992.957 176.593C993.784 176.344 995.1 176.155 995.881 176.182C997.474 176.236 998.209 176.605 996.794 176.631C994.551 176.712 992.962 179.503 993.904 181.755C995.194 184.802 999.293 184.968 1001.4 182.043C1002.59 180.409 1002.57 178.93 1001.34 177.33C1000.74 176.554 1000.69 176.376 1001.05 176.536C1001.31 176.631 1003.3 177.398 1005.5 178.243C1008.36 179.312 1009.73 179.952 1010.27 180.452C1010.69 180.839 1011.2 181.21 1011.43 181.305C1011.64 181.385 1012.16 181.934 1012.59 182.548C1013.95 184.505 1014.45 184.86 1015.65 184.786C1016.25 184.733 1017.19 184.532 1017.76 184.349C1018.33 184.166 1019.43 183.865 1020.23 183.713C1022.43 183.243 1023.92 183.963 1023.2 185.155C1022.73 185.955 1022.82 187.173 1023.41 187.754C1024.29 188.625 1025.84 188.891 1030.34 188.907C1035.3 188.921 1035.76 189.047 1038.18 191.111L1039.7 192.417L1038.91 193.414C1037.17 195.669 1036.75 197.508 1037.48 199.681C1037.88 200.881 1037.88 201.206 1037.54 201.745C1035.35 205.044 1035.02 206.688 1036.09 208.679C1036.77 209.926 1036.75 209.942 1035.71 211.819C1034.75 213.484 1034.32 215.031 1034.5 216.118C1034.71 217.32 1036.8 220.539 1039.04 223.14C1040.11 224.384 1041.93 226.468 1043.04 227.76C1045.83 230.991 1045.95 231.429 1044.78 234.054C1043.22 237.462 1043.08 239.446 1044.15 241.99C1045.67 245.522 1048.08 245.895 1053.01 243.325C1057.17 241.166 1061.65 237.965 1068.21 232.392C1071.64 229.474 1073.66 227.591 1078.82 222.353C1085.26 215.855 1087.94 212.812 1092.55 206.863C1097.3 200.703 1100.48 194.894 1100.57 192.211C1100.64 190.439 1099.62 189.114 1097.46 188.235C1094.86 187.165 1092.7 187.391 1089.3 189.04C1087.63 189.848 1086.85 189.854 1085.58 189.116C1085.28 188.923 1083.24 187.231 1081.06 185.345C1076.63 181.524 1075.39 180.59 1073.38 179.548C1071.1 178.362 1070.28 178.432 1067.11 180.113L1065.33 181.068L1064.09 180.427C1063.42 180.058 1062.52 179.756 1062.13 179.758C1061.15 179.733 1059.55 180.41 1057.93 181.495L1056.64 182.382L1055.04 181.873C1052.99 181.237 1051.35 181.59 1049.23 183.117L1047.82 184.15L1046.57 182.697C1044.48 180.307 1044.28 179.593 1044.19 174.408C1044.11 169.322 1043.79 168.008 1042.47 167.546C1042.09 167.402 1041.39 167.456 1040.79 167.671C1039.98 167.97 1039.71 167.955 1039.35 167.633C1038.66 166.955 1038.68 165.882 1039.47 162.886C1040.44 159.287 1040.37 159.06 1038.12 157.386C1036.88 156.485 1036.47 156.081 1036.45 155.773C1036.41 155.545 1036.14 155.206 1035.81 154.981C1035.22 154.595 1034.87 153.866 1033.22 149.489C1032.85 148.581 1032.36 147.35 1032.09 146.766C1031.83 146.183 1031.61 145.616 1031.64 145.518C1031.66 145.404 1032.08 145.629 1032.59 145.999C1034.03 147.094 1035.48 147.035 1037.04 145.87C1039.88 143.786 1039.7 139.577 1036.76 138.428C1035.36 137.885 1033.43 138.305 1032.35 139.402C1031.96 139.795 1031.87 140.056 1031.52 141.521L1031.36 142.107L1031.22 141.263C1030.97 139.851 1031.19 138.581 1032.39 134.444C1034.33 127.864 1034.79 124.48 1034.7 118.288C1034.58 110.715 1033.67 106.431 1031.22 101.751C1029.59 98.6908 1028.27 96.9122 1025.8 94.4755C1023.8 92.5394 1023.23 92.1047 1021.58 91.2225C1017.26 88.8965 1012.64 88.344 1008.95 89.6867C1005.68 90.8806 1003.06 93.6295 1001.77 97.1983C1001.04 99.2513 1000.96 101.072 1001.49 102.922L1001.91 104.3L999.791 102.023C998.186 100.312 997.693 99.665 997.773 99.3883C997.916 98.9161 997.572 98.5771 997.004 98.6302C996.532 98.682 996.04 98.1004 995.675 97.0626C995.26 95.8792 994.597 96.3554 987.603 102.922C983.178 107.082 965.903 124.303 961.465 128.968ZM952.247 152.031C952.895 151.637 953.949 151.191 954.565 151.023C955.847 150.673 958.628 150.735 960.192 151.114C961.674 151.509 964.188 152.954 965.334 154.084L966.301 155.036L965.228 155.109C964.009 155.198 962.649 155.923 962.102 156.772C961.137 158.307 961.755 160.53 963.388 161.558C965.135 162.634 966.744 162.477 968.132 161.069C969.488 159.694 969.739 158.392 968.946 156.707C968.633 156.011 968.27 155.363 968.139 155.234C968.008 155.105 967.959 154.927 968.039 154.845C968.104 154.779 968.954 155.391 969.919 156.213C971.62 157.664 974.498 159.919 977.113 161.85C986.151 168.466 990.105 171.071 995.474 173.91C995.67 174.006 994.76 174.11 993.459 174.119C992.013 174.146 989.462 174.472 986.897 175.011C981.702 176.088 979.444 176.348 975.378 176.28C966.923 176.177 958.659 173.327 954.254 168.986C950.521 165.306 948.19 157.619 949.842 154.405C950.419 153.296 950.871 152.87 952.247 152.031ZM1009.35 94.755C1010.99 94.0772 1014.05 94.3804 1017.27 95.5279C1023.68 97.8389 1027.55 102.947 1029.86 112.13C1031.4 118.296 1031.33 124.164 1029.6 132.855C1029.29 134.418 1029.04 136.662 1029.04 137.849C1029.01 139.051 1028.94 139.946 1028.82 139.833C1028.72 139.736 1028.36 139.121 1028.05 138.457C1026.07 134.473 1017.46 122.344 1011.67 115.348C1011.18 114.766 1010.54 113.942 1010.23 113.537L1009.67 112.794L1010.77 113.453C1012.81 114.625 1014.3 114.484 1015.82 112.946C1017.27 111.472 1017.37 109.7 1016.08 108.035C1013.88 105.19 1009.86 106.617 1009.88 110.225L1009.89 111.265L1008.59 109.795C1007.87 108.987 1007.05 107.823 1006.76 107.24C1005.72 105.118 1005.26 102.44 1005.57 100.324C1005.94 97.9811 1007.63 95.4829 1009.35 94.755ZM964.329 156.643C964.603 156.365 965.498 156.505 965.875 156.876C966.104 157.102 966.56 157.196 967.015 157.128C967.486 157.043 967.811 157.138 967.911 157.365C968.191 157.964 967.826 159.089 967.099 159.858C965.857 161.183 963.659 160.793 963.127 159.203C962.895 158.457 963.309 157.251 963.908 156.938C964.07 156.84 964.248 156.725 964.329 156.643ZM1013.48 107.989C1014.37 108.031 1014.96 108.547 1015.29 109.552C1015.59 110.493 1015.42 111.063 1014.51 111.979C1013.93 112.569 1013.57 112.734 1012.81 112.788L1011.82 112.844L1011.98 111.965C1012.05 111.428 1011.97 110.957 1011.74 110.732C1010.66 109.666 1011.77 107.887 1013.48 107.989ZM997.536 177.975C998.707 178.032 999.296 178.58 999.287 179.637C999.311 180.66 998.617 181.396 997.673 181.338C996.86 181.311 995.11 179.845 995.236 179.259C995.345 178.624 996.543 177.933 997.536 177.975ZM1034.09 139.763C1034.32 139.664 1034.66 139.906 1035.37 140.664C1036.17 141.487 1036.35 141.828 1036.29 142.348C1036.11 144.202 1033.67 144.382 1033.09 142.582C1032.74 141.496 1033.2 140.176 1034.09 139.763Z" fill="#FDD908"/>
<path d="M1038.47 191.358L1039.7 192.417L1038.91 193.414C1037.17 195.669 1036.75 197.508 1037.48 199.681C1037.88 200.881 1037.88 201.206 1037.54 201.745C1035.83 204.327 1035.25 205.895 1035.6 207.41C1044.65 198.232 1053.7 189.055 1062.75 179.877C1062.5 179.801 1062.28 179.757 1062.13 179.759C1061.16 179.733 1059.55 180.41 1057.93 181.495L1056.64 182.382L1055.04 181.873C1052.99 181.237 1051.35 181.59 1049.23 183.117L1047.82 184.151L1046.78 182.933L1038.47 191.358Z" fill="#FFB70D"/>
<path d="M1020.05 183.746H1020.05C1020.11 183.736 1020.17 183.724 1020.23 183.713C1022.43 183.243 1023.92 183.963 1023.2 185.155C1022.73 185.955 1022.82 187.173 1023.41 187.754C1024.29 188.625 1025.84 188.891 1030.34 188.908C1031.14 188.91 1031.82 188.915 1032.41 188.93C1036.36 184.924 1040.31 180.919 1044.26 176.913C1044.23 176.208 1044.21 175.388 1044.19 174.409C1044.11 169.322 1043.79 168.008 1042.47 167.546C1042.09 167.402 1041.39 167.456 1040.79 167.671C1039.98 167.97 1039.71 167.955 1039.35 167.633C1038.79 167.087 1038.7 166.287 1039.1 164.434L1032.09 171.541L1020.06 183.744L1020.05 183.746Z" fill="#FFB70D"/>
<path d="M1042.29 212.907L1068.37 186.465L1079.95 197.871L1053.87 224.314L1042.29 212.907Z" fill="white" fill-opacity="0.607843"/>
<path d="M1014.89 132.052L1018.2 135.569C1024.51 143.009 1028.28 150.268 1029.48 157.346C1030.67 164.441 1028.86 169.639 1024.05 172.941C1019.12 175.749 1012.85 175.699 1005.23 172.789C1002.78 171.842 1000.3 170.612 997.793 169.098L994.066 166.627C991.585 164.842 989.173 162.799 986.831 160.499C979.756 153.325 975.155 146.052 973.028 138.681C970.902 131.309 971.736 125.52 975.528 121.312C979.683 117.461 985.463 116.546 992.866 118.566C1000.27 120.586 1007.61 125.082 1014.89 132.052Z" fill="white" fill-opacity="0.607843"/>
<path d="M1006.82 141.161L1018.78 147.389L1005.56 150.06L1003.33 163.36L996.704 151.614L983.361 153.606L992.489 143.676L986.47 131.607L998.739 137.216L1008.36 127.765L1006.82 141.161ZM1017.61 147.163L1006.37 141.313L1000.08 144.252L1000.08 144.257L1000.08 144.258V144.258L1017.54 147.176L1017.61 147.162L1017.61 147.163ZM1000.09 144.311L1003.08 162.126L1005.16 149.681L1000.09 144.311L1000.09 144.311ZM984.355 152.924L984.271 153.014L996.829 151.139L996.849 151.173L1000.06 144.278L1000.04 144.265L984.355 152.923L984.355 152.924ZM998.781 137.551L1000.06 144.228L1000.06 144.224L1000.03 144.223L987.22 132.318L987.197 132.307L992.862 143.668L992.938 143.859L1000.03 144.223L1000.05 144.243L1000.07 144.254L1000.07 144.237L1000.06 144.23L1007.79 128.817L1007.8 128.691L998.78 137.551H998.781ZM1000.06 144.233L1000.06 144.228L1000.06 144.23L1000.06 144.233Z" fill="#FFB70D"/>
<path d="M1000.06 144.232C1000.05 144.239 1000.05 144.248 1000.05 144.256L1000.05 144.263L1000.05 144.263C1000.05 144.274 1000.06 144.283 1000.08 144.285L1017.54 147.203H1017.55L1017.62 147.19C1017.62 147.189 1017.63 147.186 1017.63 147.182C1017.64 147.179 1017.64 147.175 1017.64 147.17C1017.64 147.161 1017.64 147.15 1017.63 147.143L1017.63 147.143L1017.63 147.138L1006.39 141.289L1006.36 141.288L1000.07 144.227C1000.06 144.228 1000.06 144.23 1000.06 144.232Z" fill="#FFB70D"/>
<path d="M1000.07 144.291C1000.06 144.298 1000.06 144.306 1000.06 144.315L1003.05 162.13C1003.05 162.143 1003.07 162.153 1003.08 162.153C1003.09 162.153 1003.09 162.15 1003.1 162.145C1003.1 162.141 1003.11 162.136 1003.11 162.13L1005.19 149.686L1005.18 149.662L1000.11 144.292C1000.1 144.283 1000.08 144.28 1000.07 144.286C1000.07 144.287 1000.07 144.289 1000.07 144.291Z" fill="#FFB70D"/>
<path d="M984.337 152.905L984.337 152.906L984.253 152.996C984.246 153.004 984.244 153.017 984.249 153.027C984.255 153.038 984.266 153.043 984.278 153.042L996.817 151.17L996.827 151.187C996.832 151.196 996.842 151.202 996.852 151.201C996.859 151.201 996.866 151.198 996.871 151.193C996.872 151.19 996.875 151.188 996.876 151.185L1000.08 144.289L1000.08 144.259L1000.07 144.246C1000.06 144.237 1000.04 144.235 1000.03 144.24L984.344 152.9L984.337 152.905L984.337 152.905Z" fill="#FFB70D"/>
<path d="M987.182 132.288C987.174 132.296 987.172 132.309 987.177 132.319L992.841 143.679L992.917 143.87L992.941 143.887L1000.03 144.25C1000.04 144.25 1000.05 144.248 1000.06 144.242C1000.06 144.239 1000.06 144.237 1000.06 144.234C1000.07 144.223 1000.06 144.211 1000.06 144.203L1000.06 144.203L1000.05 144.202L987.243 132.297L987.236 132.292L987.213 132.282C987.202 132.277 987.19 132.28 987.182 132.288Z" fill="#FFB70D"/>
<path d="M998.76 137.532C998.754 137.538 998.751 137.547 998.752 137.556C998.753 137.559 998.754 137.562 998.756 137.565L998.755 137.566L1000.03 144.196C1000.02 144.197 1000.02 144.2 1000.01 144.204C1000.01 144.206 1000.01 144.209 1000.01 144.212C1000 144.223 1000 144.235 1000.01 144.243L1000.03 144.263L1000.03 144.264L1000.05 144.274C1000.05 144.28 1000.06 144.283 1000.07 144.281C1000.08 144.28 1000.08 144.277 1000.09 144.273C1000.09 144.271 1000.09 144.269 1000.09 144.266L1000.1 144.249C1000.1 144.241 1000.1 144.233 1000.1 144.225L1000.1 144.227L1007.81 128.829L1007.81 128.82L1007.83 128.694C1007.83 128.683 1007.82 128.671 1007.81 128.666C1007.8 128.661 1007.79 128.663 1007.78 128.671L998.76 137.531C998.76 137.532 998.76 137.532 998.76 137.532Z" fill="#FFB70D"/>
<path d="M1041.77 240.839L1069.06 213.169L1096.35 185.499C1099.58 188.682 1102.81 191.866 1106.04 195.05C1087.85 213.496 1069.65 231.943 1051.46 250.39C1048.23 247.206 1045 244.022 1041.77 240.839Z" fill="#FFB70D" fill-opacity="0.996078"/>
<path d="M396.328 87.9727C396.328 87.9727 395.914 88.2083 395.146 88.6119L396.328 87.9727Z" fill="black"/>
<path d="M631.321 527.347C631.978 524.901 632.291 522.377 632.253 519.82C632.024 504.704 619.536 492.592 604.414 492.822C598.124 492.916 592.012 495.192 587.204 499.231C582.929 502.823 579.837 507.663 578.374 513.006C568.241 512.213 559.19 518.771 556.473 528.182C554.936 527.856 553.368 527.704 551.79 527.728C540.153 527.904 530.827 537.443 531.002 549.076C531.179 560.711 540.789 569.964 552.426 569.787L626.109 568.675C637.747 568.499 647.072 558.959 646.896 547.326C646.752 537.807 640.327 529.769 631.321 527.347Z" fill="white"/>
<path d="M1367.89 63.5365C1369.04 59.2475 1369.59 54.8223 1369.52 50.3394C1369.12 23.8386 1347.23 2.60342 1320.71 3.00512C1309.68 3.16993 1298.97 7.16132 1290.54 14.2424C1283.04 20.5394 1277.62 29.0257 1275.06 38.3935C1257.29 37.0038 1241.42 48.5008 1236.66 65.0006C1233.97 64.4292 1231.22 64.162 1228.45 64.2055C1208.05 64.5136 1191.7 81.2367 1192 101.633C1192.31 122.032 1209.16 138.254 1229.57 137.945L1358.75 135.995C1379.15 135.686 1395.5 118.961 1395.19 98.5643C1394.94 81.8764 1383.68 67.7824 1367.89 63.5365Z" fill="white"/>
<path d="M875.927 241.793C876.666 239.039 877.018 236.198 876.975 233.32C876.717 216.305 862.661 202.671 845.639 202.929C838.558 203.035 831.678 205.598 826.266 210.144C821.453 214.187 817.973 219.636 816.327 225.65C804.921 224.758 794.732 232.139 791.674 242.733C789.944 242.366 788.178 242.194 786.402 242.222C773.303 242.42 762.805 253.157 763.003 266.252C763.201 279.349 774.019 289.764 787.118 289.566L870.059 288.314C883.16 288.116 893.656 277.377 893.458 264.282C893.296 253.568 886.064 244.519 875.927 241.793Z" fill="white"/>
<g filter="url(#filter0_d_215_200)">
<path d="M987.295 590.715L987.295 590.715C993.818 595.362 999.898 599.423 1005.54 602.898C1003.66 601.519 1001.72 600.161 999.709 598.823C997.698 597.485 995.618 596.167 993.469 594.87L987.295 590.715Z" fill="#ABC1CE"/>
<path d="M1005.56 602.911L1005.58 602.926L1006.03 603.211C1005.97 603.17 1005.9 603.121 1005.81 603.064C1005.67 602.978 1005.59 602.927 1005.56 602.911Z" fill="#ABC1CE"/>
<path d="M1004.31 602.496C1002.48 602.23 1000.14 601.873 997.698 601.437C988.5 599.801 985.595 598.539 984.682 597.929C983.308 597.017 982.254 595.757 981.627 594.285L981.41 593.776L974.197 589.034L980.998 580.262L987.415 584.737L987.983 584.743C989.583 584.751 991.154 585.24 992.53 586.152C993.44 586.762 995.729 588.952 1000.78 596.802C1002.12 598.886 1003.36 600.909 1004.31 602.496Z" fill="#FFCE54"/>
<path d="M971.543 589.472L979.945 594.999C980.681 596.728 981.94 598.298 983.671 599.45C988.092 602.394 1007.8 604.817 1007.8 604.817C1007.8 604.817 997.966 587.578 993.541 584.63C991.814 583.483 989.876 582.925 987.994 582.914L980.618 577.772L971.543 589.472ZM985.902 585.91L986.837 586.559L987.974 586.567C989.216 586.575 990.442 586.958 991.516 587.673C991.869 587.909 993.912 589.507 999.239 597.779C999.745 598.569 1000.24 599.346 1000.7 600.095C999.831 599.953 998.925 599.801 998.004 599.635C988.313 597.912 986.05 596.648 985.696 596.407C984.619 595.693 983.795 594.709 983.312 593.569L982.878 592.551L981.954 591.943L976.854 588.594L981.378 582.757L985.902 585.91Z" fill="#F6BB42"/>
<path d="M986.403 574.106C985.731 573.196 985.029 572.291 984.305 571.397L965.59 553.876C964.641 553.197 963.676 552.531 962.702 551.878C962.134 551.505 961.567 551.132 960.996 550.77C970.333 548.98 981.387 551.207 991.131 557.69C994.375 559.852 997.239 562.326 999.691 565.013C999.708 565.031 999.804 565.138 999.804 565.138C1000.31 565.743 1000.38 566.631 999.921 567.32C999.767 567.547 999.571 567.729 999.351 567.861C999.351 567.861 999.177 567.961 999.098 567.993L986.577 574.345C986.519 574.263 986.461 574.187 986.403 574.106Z" fill="#FF000A"/>
<path d="M940.156 582.042C940.713 582.429 941.276 582.808 941.842 583.187C942.817 583.834 943.803 584.468 944.796 585.079C946.02 588.559 968.189 595.588 968.189 595.588C969.293 595.909 970.395 596.207 971.498 596.479C971.593 596.503 971.688 596.523 971.783 596.547L970.749 610.548C970.749 610.63 970.724 610.832 970.724 610.832C970.687 611.086 970.595 611.334 970.442 611.567C969.983 612.256 969.138 612.529 968.382 612.298C968.382 612.298 968.25 612.253 968.226 612.241C964.801 611.019 961.414 609.334 958.167 607.173C948.42 600.684 942.102 591.347 940.156 582.042Z" fill="#FF000A"/>
<path d="M940.647 583.788C952.861 591.916 965.952 596.918 978.03 598.749C978.704 598.837 979.398 598.556 979.799 597.95L990.964 581.197C991.363 580.591 991.358 579.843 991.015 579.255C984.669 568.819 975.006 558.675 962.793 550.547C943.821 537.914 922.976 532.869 906.584 535.466C906.096 535.542 905.597 535.822 905.3 536.265C905.004 536.713 904.937 537.279 905.056 537.764C908.98 553.883 921.677 571.161 940.647 583.788Z" fill="white"/>
<path d="M951.134 560.571C951.518 562.485 951.131 564.434 950.05 566.057C948.967 567.68 947.317 568.788 945.402 569.172C943.487 569.556 941.537 569.17 939.911 568.09C938.288 567.01 937.178 565.355 936.795 563.446C936.411 561.531 936.797 559.583 937.877 557.954C940.114 554.601 944.662 553.689 948.017 555.922C949.641 557.007 950.75 558.657 951.133 560.566C951.134 560.571 951.134 560.571 951.134 560.571Z" fill="#434A54"/>
<path d="M969.391 572.723C969.776 574.638 969.392 576.586 968.308 578.209C967.227 579.832 965.575 580.941 963.662 581.324C961.747 581.708 959.795 581.322 958.169 580.242C956.545 579.162 955.437 577.512 955.053 575.598C954.669 573.683 955.055 571.735 956.135 570.106C958.372 566.753 962.92 565.841 966.275 568.074C967.902 569.159 969.007 570.809 969.391 572.723H969.392H969.391Z" fill="#434A54"/>
<path d="M936.357 556.94C935.006 558.973 934.523 561.412 935.003 563.805C935.483 566.193 936.868 568.256 938.9 569.611C940.93 570.96 943.37 571.445 945.761 570.966C948.155 570.486 950.217 569.099 951.573 567.071C952.924 565.038 953.404 562.6 952.925 560.212C952.445 557.819 951.062 555.754 949.03 554.4C944.836 551.607 939.151 552.747 936.357 556.94ZM947.003 557.443C948.264 558.285 949.065 559.552 949.342 560.93C949.617 562.303 949.367 563.786 948.528 565.043C946.849 567.563 943.445 568.246 940.924 566.568C939.665 565.732 938.865 564.459 938.589 563.086C938.313 561.708 938.561 560.23 939.4 558.968C941.078 556.448 944.482 555.766 947.003 557.443Z" fill="#40BEAE"/>
<path d="M953.264 575.957C953.744 578.35 955.126 580.409 957.157 581.763C959.188 583.118 961.628 583.598 964.021 583.118C966.413 582.638 968.476 581.256 969.83 579.223C971.182 577.19 971.665 574.757 971.185 572.364C970.705 569.97 969.319 567.906 967.288 566.552C963.093 563.76 957.408 564.899 954.615 569.092C953.263 571.125 952.783 573.563 953.264 575.957ZM965.26 569.595C966.524 570.436 967.323 571.704 967.599 573.083C967.874 574.455 967.628 575.938 966.785 577.196C965.107 579.716 961.702 580.398 959.182 578.72C957.922 577.884 957.122 576.611 956.847 575.238C956.57 573.86 956.818 572.382 957.657 571.12C959.336 568.6 962.74 567.918 965.26 569.595Z" fill="#40BEAE"/>
<path d="M930.235 536.463L915.099 559.19C910.197 552.151 906.78 544.843 905.056 537.764C904.937 537.279 905.004 536.713 905.3 536.265C905.597 535.822 906.096 535.542 906.584 535.466C913.788 534.322 921.85 534.659 930.235 536.463Z" fill="#FF000A"/>
<path d="M910.781 560.95C910.923 560.931 911.094 560.92 911.294 560.917C911.428 560.909 911.725 560.916 912.185 560.937L910.781 560.95Z" fill="#A4AEB5" fill-opacity="0.996078"/>
</g>
<path d="M524.083 359.929L523.839 361.957C522.68 366.042 519.29 369.309 513.669 371.758C508.008 374.205 501.343 375.197 493.672 374.735C486.351 374.088 480.496 372.197 476.107 369.06C474.701 368.046 473.542 366.941 472.632 365.745L471.484 363.902C470.853 362.633 470.534 361.309 470.527 359.929C470.719 355.696 473.333 352.175 478.371 349.364C483.408 346.553 489.719 345.094 497.305 344.988C504.891 345.094 511.203 346.553 516.24 349.364C521.278 352.175 523.892 355.696 524.083 359.929Z" fill="white"/>
<path d="M505.808 373.168L505.166 373.683C502.376 375.975 500.053 377.581 498.198 378.501C497.576 378.842 496.56 379.219 495.152 379.632C494.149 379.909 492.757 380.174 490.979 380.429C492.259 379.56 493.134 378.89 493.602 378.42C494.036 377.951 494.259 377.671 494.272 377.581C494.374 377.397 494.437 377.215 494.46 377.034C494.482 376.854 494.464 376.676 494.407 376.5C494.416 376.41 494.26 376.149 493.939 375.717C493.583 375.286 492.866 374.695 491.788 373.942L498.515 373.844L505.808 373.168Z" fill="white"/>
<path d="M1274 203.813C1273.5 204.735 1272.81 205.979 1272.47 206.623C1272.1 207.247 1270.42 210.265 1268.72 213.308C1267.01 216.35 1265.26 219.284 1264.8 219.846C1261.57 223.801 1262.85 229.775 1267.34 231.907C1268.03 232.225 1269.1 232.566 1269.71 232.665L1270.84 232.868L1270.19 233.262C1269.2 233.854 1267.86 235.537 1267.23 236.934C1266.76 238.032 1266.69 238.438 1266.79 240.195C1266.89 241.929 1267 242.369 1267.63 243.539C1268 244.276 1268.59 245.091 1268.89 245.341C1269.2 245.592 1269.46 245.867 1269.46 245.956C1269.47 246.022 1268.9 246.3 1268.2 246.563C1265.93 247.384 1263.81 249.714 1263.29 251.953C1263.02 253.151 1263.15 255.531 1263.56 256.691C1264.01 257.959 1265.23 259.496 1266.54 260.426C1268.7 261.931 1266.69 261.957 1299.22 260.104L1328.43 258.439L1328.33 256.66L1328.23 254.88L1326.45 254.982L1324.67 255.083L1324.42 250.746L1324.18 246.409L1325.96 246.307L1327.74 246.206L1327.7 245.539L1327.66 244.894L1329.84 244.703L1331.99 244.513L1331.96 242.797L1331.93 241.08L1330.64 241.087L1329.34 241.094L1329.1 236.756L1328.85 232.42L1330.14 232.279L1331.42 232.139L1331.26 230.431L1331.09 228.722L1329.71 228.733L1328.3 228.747L1328.22 227.278C1328.15 225.988 1328.02 225.639 1327.06 224.065C1326.47 223.117 1325.41 221.369 1324.72 220.226L1323.44 218.134L1325.61 217.944L1327.79 217.753L1327.72 215.413L1327.63 213.075L1325.51 210.741C1324.35 209.447 1321.63 206.5 1319.49 204.167L1315.59 199.927L1295.25 201.041L1274.89 202.156L1274 203.813ZM1321.02 222.266L1321.24 226.27L1295.34 227.701L1269.44 229.11L1268.53 228.47C1267.23 227.518 1266.68 226.589 1266.62 225.142C1266.55 223.785 1266.91 222.782 1267.8 221.839L1268.39 221.248L1294.58 219.756L1320.79 218.263L1321.02 222.266ZM1325.31 236.972L1325.56 241.309L1300.2 242.821C1271.45 244.503 1273.22 244.514 1271.54 242.803C1270.99 242.254 1270.5 241.501 1270.39 241.061C1269.81 238.728 1271.15 236.354 1273.43 235.666C1273.8 235.556 1285.57 234.84 1299.59 234.064L1325.07 232.635L1325.31 236.972ZM1320.82 250.996L1321.11 255.286L1295.64 256.737C1267.58 258.336 1269.32 258.326 1267.92 256.911C1266.24 255.199 1266.23 252.656 1267.89 250.91C1269.2 249.519 1267.95 249.634 1295.37 248.117L1320.51 246.729L1320.82 250.996Z" fill="#FF0000"/>
<path d="M1268.39 221.197C1268.37 221.197 1268.36 221.203 1268.35 221.212L1267.76 221.803L1267.76 221.804C1266.87 222.758 1266.49 223.775 1266.57 225.145C1266.63 226.61 1267.19 227.552 1268.5 228.512L1268.5 228.512L1269.41 229.153C1269.42 229.159 1269.43 229.162 1269.44 229.162L1295.35 227.753H1295.35L1321.25 226.322L1321.25 226.322C1321.26 226.321 1321.27 226.315 1321.28 226.305C1321.29 226.295 1321.3 226.281 1321.3 226.267L1321.07 222.264L1320.84 218.26C1320.84 218.232 1320.81 218.21 1320.79 218.212L1294.57 219.705L1268.39 221.197Z" fill="white"/>
<path d="M1292.61 234.404C1281.87 235.016 1273.73 235.523 1273.41 235.616L1273.41 235.617C1271.1 236.312 1269.75 238.715 1270.34 241.074L1270.34 241.074C1270.45 241.526 1270.95 242.287 1271.5 242.839L1271.5 242.84C1271.59 242.933 1271.67 243.019 1271.75 243.103L1271.75 243.104C1271.82 243.177 1271.88 243.249 1271.95 243.315C1272.91 244.298 1273.93 244.389 1287.03 243.642C1289.44 243.505 1292.12 243.347 1295.38 243.156L1300.2 242.873L1325.56 241.361C1325.59 241.359 1325.61 241.335 1325.61 241.307L1325.36 236.969L1325.12 232.632C1325.11 232.604 1325.09 232.582 1325.06 232.584L1299.58 234.013L1299.58 234.013C1297.16 234.146 1294.85 234.277 1292.61 234.404Z" fill="white"/>
<path d="M1283.11 248.748C1269.09 249.546 1268.92 249.7 1268.01 250.708C1267.96 250.761 1267.91 250.817 1267.86 250.874V250.875C1266.17 252.641 1266.18 255.215 1267.89 256.947H1267.89C1267.96 257.025 1268.03 257.1 1268.1 257.17C1268.15 257.231 1268.21 257.293 1268.26 257.348C1269.15 258.249 1270.28 258.235 1287.64 257.246V257.246L1291.16 257.044L1295.64 256.789L1321.12 255.338C1321.13 255.337 1321.14 255.331 1321.15 255.32C1321.16 255.31 1321.17 255.296 1321.17 255.283L1320.88 250.992V250.992L1320.57 246.725C1320.56 246.697 1320.54 246.676 1320.51 246.678L1295.37 248.065V248.066L1292.65 248.215L1290.3 248.346C1287.51 248.5 1285.23 248.626 1283.11 248.748Z" fill="white"/>
<path d="M786.206 411.431L786.202 411.432V411.432L786.197 411.433C785.646 411.566 785.483 411.612 785.242 411.734C785.093 411.809 784.748 412.048 784.49 412.258L784.49 412.258L784.027 412.643L784.018 412.667L784.777 419.884V419.884L785.545 427.1L785.575 427.124L789.969 426.674L789.993 426.644L789.28 419.403L788.558 412.173L788.544 412.151L787.932 411.838L787.932 411.838C787.584 411.66 787.091 411.497 786.814 411.466L786.814 411.466C786.55 411.435 786.276 411.424 786.206 411.431Z" fill="#535D66"/>
<path d="M786.276 427.641C783.901 427.884 782.115 428.085 782.02 428.127V428.127C782.02 428.126 782.007 428.131 782.002 428.144L782.001 428.148C782 428.15 782 428.152 782 428.155V428.155C781.993 428.365 783.77 445.801 785.958 467.051L789.946 505.865L789.975 505.889L795.786 505.323L795.786 505.323L801.586 504.749L801.61 504.719L799.113 480.351C797.737 466.929 795.956 449.458 795.156 441.457V441.457L793.687 426.941L793.657 426.916L787.856 427.482H787.856C787.266 427.54 786.822 427.585 786.276 427.641Z" fill="#191A1A"/>
<path d="M797.343 426.587L797.318 426.617L797.428 427.686C797.445 427.85 797.515 428.554 797.622 429.622C797.886 432.259 798.381 437.199 798.929 442.614L800.329 456.461L800.358 456.486L801.488 456.399L802.608 456.313L802.633 456.283L801.101 441.33L799.569 426.386L799.54 426.362L797.343 426.587Z" fill="#191A1A"/>
<path d="M794.193 426.919L794.178 426.939L794.329 428.419L794.481 429.899L794.5 429.915L796.984 429.661L797 429.641L796.848 428.161L796.696 426.681L796.677 426.665L794.193 426.919Z" fill="#535D66"/>
<path d="M799.368 450.512C799.363 450.513 799.36 450.514 799.358 450.516V450.516C799.237 450.586 797.217 453.419 797.192 453.553V453.553C797.192 453.554 797.191 453.557 797.191 453.56C797.192 453.563 797.192 453.565 797.193 453.566L797.193 453.567C797.24 453.7 799.714 456.057 799.887 456.146L799.888 456.146C799.891 456.147 799.895 456.148 799.899 456.148C799.91 456.147 799.915 456.138 799.917 456.135L799.917 456.135C799.958 456.055 799.878 454.943 799.715 453.35C799.56 451.841 799.415 450.596 799.388 450.526L799.388 450.526C799.388 450.526 799.382 450.511 799.368 450.512Z" fill="#535D66"/>
<path d="M789.973 506.354L789.939 506.404L790.028 506.704V506.705C790.107 506.994 791.589 513.174 792.236 515.912C792.338 516.351 792.502 517.039 792.661 517.702V517.702L792.83 518.409C792.952 518.923 793.064 519.395 793.132 519.681C793.193 519.938 793.251 520.179 793.314 520.446V520.446C793.416 520.872 793.546 521.416 793.76 522.308V522.308C793.816 522.547 793.927 523.02 793.969 523.198L793.969 523.198L794.089 523.709C794.139 523.923 794.169 524.054 794.172 524.066L794.172 524.067C794.175 524.095 794.204 524.101 794.213 524.102H794.218C794.366 524.106 795.927 523.964 797.795 523.772L797.801 523.772L801.383 523.405L801.419 523.37L801.444 523.145C801.469 522.918 801.712 505.532 801.692 505.31V505.31V505.31C801.689 505.285 801.672 505.273 801.662 505.268C801.524 505.195 800.151 505.311 795.81 505.756L789.973 506.354Z" fill="#535D66"/>
<path d="M797.749 524.179C796.281 524.329 795.739 524.405 795.672 524.515C795.665 524.528 795.661 524.542 795.662 524.558L795.663 524.561C795.676 524.648 796.109 525.954 796.629 527.478C797.154 529.017 797.916 531.283 798.313 532.516V532.516C798.708 533.714 799.04 534.719 799.077 534.786V534.787C799.078 534.787 799.081 534.795 799.089 534.801H799.089C799.094 534.805 799.107 534.815 799.127 534.813C799.15 534.811 799.162 534.793 799.166 534.784C799.213 534.698 799.252 534 799.49 529.902L799.52 529.399L799.521 529.384V529.385C799.671 526.726 799.811 524.443 799.824 524.276V524.276L799.855 524.012L799.812 523.968L797.749 524.179Z" fill="black"/>
<path d="M1011.5 337.959C1009.17 337.015 1005.81 336.432 1003.33 336.542C998.983 336.717 994.152 338.611 991.006 341.344C990.219 342.028 985.058 347.31 979.5 353.093C973.961 358.89 968.355 364.701 967.075 366.028C963.406 369.8 963.138 370.153 962.517 371.865C960.7 376.973 963.851 382.353 969.212 383.272C970.416 383.462 972.412 383.18 980.897 381.529L991.127 379.574L1004.44 388.546L1017.75 397.517L1019.79 407.71C1021.92 418.556 1022.1 419.122 1024.15 421.127C1026.21 423.165 1030.06 423.954 1032.71 422.927C1036.06 421.603 1036.59 420.898 1040.26 412.689C1041.92 409.008 1045.11 401.899 1047.36 396.901C1052.99 384.332 1053.16 383.911 1053.69 381.934C1055.41 375.306 1053.41 367.864 1048.62 362.98C1047.05 361.359 1046.05 360.653 1030.26 350.042C1014.75 339.589 1013.42 338.752 1011.5 337.959ZM1009.7 352.875L1007.64 355.927L1010.71 358.087L1013.76 360.233L1012.41 362.248L1011.03 364.282L1008 362.24C1005.76 360.73 1004.91 360.242 1004.72 360.384C1004.58 360.499 1003.71 361.747 1002.79 363.164C1001.86 364.582 1000.96 365.87 1000.78 366.012C1000.48 366.283 1000.18 366.145 998.434 364.966L996.418 363.609L998.457 360.453L1000.48 357.32L997.43 355.174L994.356 353.014L995.715 350.999L997.087 348.965L1000.24 351.092L1003.4 353.217L1005.52 350.063L1007.66 346.889L1009.72 348.363L1011.76 349.823L1009.7 352.875ZM1040.73 369.677C1041.37 370.755 1041.22 371.932 1040.31 372.975C1039.49 373.931 1038.41 374.266 1037.21 373.933C1035.41 373.433 1034.56 371.108 1035.6 369.562C1037 367.486 1039.47 367.554 1040.73 369.677ZM1031.13 372.057C1031.33 372.636 1031.34 373.412 1031.17 373.976C1030.92 374.785 1030.74 375.016 1029.97 375.447C1028.81 376.115 1027.65 376.129 1026.77 375.539C1024.78 374.195 1024.87 371.419 1026.97 370.286C1028.47 369.464 1030.56 370.366 1031.13 372.057ZM1042.74 379.644C1043.44 381.152 1042.68 383.034 1041.09 383.679C1038.43 384.761 1035.97 381.74 1037.59 379.339C1037.93 378.83 1038.5 378.295 1038.88 378.134C1040.3 377.556 1042.06 378.239 1042.74 379.644ZM1033.12 382.065C1033.59 383.953 1031.88 385.999 1029.99 385.785C1028.43 385.594 1027.17 384.246 1027.18 382.742C1027.19 382.334 1027.47 381.607 1027.84 381.058C1028.41 380.224 1028.65 380.089 1029.68 379.924C1030.68 379.745 1031.02 379.822 1031.87 380.398C1032.67 380.933 1032.92 381.254 1033.12 382.065Z" fill="#FF0000"/>
<path d="M990.195 342.121C988.373 343.92 984.071 348.337 979.5 353.093C973.961 358.89 968.355 364.701 967.075 366.028C963.406 369.8 963.138 370.152 962.517 371.864C961.136 375.746 962.624 379.783 965.768 381.902C966.763 382.573 967.924 383.051 969.212 383.272C970.416 383.462 972.412 383.18 980.897 381.529L991.127 379.574L1017.75 397.518L1019.79 407.709C1021.92 418.556 1022.1 419.121 1024.15 421.126C1024.44 421.408 1024.75 421.666 1025.1 421.898C1027.25 423.348 1030.43 423.812 1032.71 422.927C1036.06 421.603 1036.59 420.898 1040.26 412.688C1041.92 409.008 1045.11 401.899 1047.36 396.901C1050.03 390.931 1051.48 387.702 1052.31 385.744L1052.31 385.743C1042.11 394.404 1030.09 396.316 1016.26 391.478C1011.98 389.867 1008.05 387.853 1004.46 385.438C1000.31 382.639 996.622 379.3 993.404 375.422C988.107 368.943 985.856 362.024 986.65 354.663C986.892 351.174 988.074 346.994 990.197 342.122L990.195 342.121Z" fill="black" fill-opacity="0.203922"/>
<path d="M986.805 374.113L965.443 381.675L965.445 381.678C965.55 381.754 965.656 381.829 965.765 381.902C966.76 382.573 967.92 383.051 969.208 383.272C970.412 383.462 972.409 383.18 980.894 381.529L991.124 379.574L1017.75 397.518L1019.78 407.709C1021.91 418.556 1022.09 419.121 1024.15 421.126C1024.43 421.408 1024.75 421.666 1025.1 421.898C1025.84 422.397 1026.7 422.779 1027.6 423.03L1027.6 423.032L1027.1 401.296L1027.1 401.281L986.805 374.113Z" fill="black" fill-opacity="0.0705882"/>
<path d="M1007.66 346.889L1009.72 348.363L1011.75 349.823L1009.69 352.875L1007.64 355.927L1010.71 358.087L1013.76 360.233L1012.4 362.248L1011.03 364.282L1008 362.24C1005.76 360.73 1004.9 360.242 1004.72 360.384C1004.58 360.499 1003.71 361.747 1002.78 363.164C1001.86 364.582 1000.96 365.87 1000.77 366.012C1000.47 366.283 1000.18 366.145 998.431 364.966L996.415 363.609L998.454 360.454L1000.48 357.32L997.427 355.174L994.354 353.014L995.712 350.999L997.084 348.965L1003.39 353.218L1005.52 350.063L1007.66 346.889Z" fill="white"/>
<path d="M1039.66 368.519C1040.07 368.79 1040.43 369.176 1040.73 369.676C1041.36 370.755 1041.22 371.932 1040.31 372.975C1039.49 373.931 1038.4 374.265 1037.21 373.932C1036.93 373.856 1036.68 373.735 1036.45 373.581C1035.19 372.735 1034.71 370.87 1035.6 369.561C1036.67 367.975 1038.36 367.641 1039.66 368.519Z" fill="white"/>
<path d="M1041.71 378.474C1042.14 378.765 1042.5 379.162 1042.74 379.645C1043.44 381.152 1042.67 383.034 1041.08 383.679C1040.09 384.083 1039.13 383.915 1038.39 383.419C1037.16 382.589 1036.57 380.842 1037.59 379.339C1037.93 378.83 1038.5 378.295 1038.87 378.134C1039.81 377.755 1040.89 377.919 1041.71 378.474Z" fill="white"/>
<path d="M1029.94 370.523C1030.48 370.887 1030.91 371.415 1031.13 372.057C1031.33 372.636 1031.34 373.412 1031.17 373.976C1030.92 374.785 1030.73 375.015 1029.97 375.447C1028.81 376.115 1027.64 376.129 1026.77 375.539C1024.77 374.195 1024.87 371.419 1026.97 370.286C1027.9 369.776 1029.06 369.929 1029.94 370.523Z" fill="white"/>
<path d="M1031.87 380.398C1032.66 380.933 1032.92 381.254 1033.11 382.065C1033.59 383.953 1031.88 385.999 1029.98 385.785C1029.47 385.722 1028.99 385.533 1028.58 385.255C1027.74 384.689 1027.17 383.751 1027.18 382.742C1027.19 382.334 1027.47 381.607 1027.84 381.058C1028.4 380.223 1028.64 380.088 1029.67 379.924C1030.68 379.745 1031.01 379.822 1031.87 380.398Z" fill="white"/>
<path d="M1031.31 350.749C1030.97 350.518 1030.62 350.282 1030.26 350.042C1014.75 339.589 1013.42 338.752 1011.5 337.959C1009.17 337.015 1005.81 336.432 1003.33 336.542C998.982 336.717 994.152 338.611 991.006 341.344C990.219 342.028 985.058 347.31 979.5 353.093C973.961 358.89 968.355 364.701 967.075 366.028C963.406 369.8 963.138 370.153 962.517 371.865C961.184 375.612 962.524 379.505 965.449 381.677L965.449 381.678C965.554 381.754 965.66 381.83 965.768 381.903C966.763 382.573 967.924 383.051 969.212 383.272C970.416 383.462 972.412 383.18 980.897 381.529L991.127 379.574L1005.39 389.187L1031.31 350.75L1031.31 350.749Z" fill="black" fill-opacity="0.054902"/>
<path d="M989.118 335.61L989.117 335.618L989.117 335.618L989.106 335.617L989.105 335.617C989.11 335.614 989.114 335.612 989.118 335.61Z" fill="white"/>
<path d="M1088.66 328.322C1087.85 328.174 1087.03 328.027 1086.22 327.879L1088.66 328.323L1088.66 328.322Z" fill="#91959B"/>
<path d="M1088.66 328.323L1088.66 328.324L1088.66 328.323C1088.67 328.323 1088.67 328.323 1088.67 328.324L1088.66 328.323Z" fill="#91959B"/>
<path d="M1455.19 67.1855C1454.06 66.9792 1452.94 67.1166 1451.94 67.5223L1444.09 59.6075C1444.33 59.1294 1444.5 58.6124 1444.6 58.0617C1444.7 57.5113 1444.72 56.9656 1444.67 56.4353L1454.53 51.9168C1455.35 52.7542 1456.43 53.3567 1457.67 53.5821C1460.84 54.1596 1463.89 52.0528 1464.46 48.8767C1465.04 45.7008 1462.94 42.6578 1459.76 42.0804C1456.58 41.5031 1453.54 43.6093 1452.96 46.7854C1452.88 47.2051 1452.85 47.6214 1452.87 48.0309L1442.75 52.6646C1441.97 51.9657 1441 51.4662 1439.89 51.2654C1436.72 50.6879 1433.67 52.7947 1433.1 55.9704C1432.52 59.1464 1434.62 62.1897 1437.8 62.7671C1438.91 62.9678 1439.99 62.8436 1440.97 62.4629L1448.87 70.4209C1448.65 70.8773 1448.49 71.3695 1448.39 71.8907C1447.81 75.0665 1449.92 78.1096 1453.1 78.6871C1456.28 79.2646 1459.32 77.1578 1459.9 73.982C1460.48 70.8059 1458.37 67.763 1455.19 67.1855Z" fill="white"/>
<g filter="url(#filter1_d_215_200)">
<path d="M444.409 26.4336L576.44 0.772811L478.31 43.0968L444.409 26.4336Z" fill="#E2E2E2"/>
<path d="M576.441 0.772481L478.311 43.0965L490.295 76.4281L576.441 0.772481Z" fill="#BFC5C9"/>
<path d="M576.437 0.773611L496.609 51.5682L522.655 95.4259L576.437 0.773611Z" fill="#E2E2E2"/>
<path d="M490.293 76.4284L496.61 51.5674L504.148 64.2526L490.293 76.4284Z" fill="#3C464F"/>
<path d="M543.879 28.7208L541.919 26.3582L539.958 23.9954C525.741 33.0484 511.523 42.1015 497.305 51.1547C500.195 56.0482 503.085 60.9421 505.975 65.8364C517.566 60.1328 529.157 54.429 540.748 48.725L543.879 28.7208Z" fill="#E2E2E2"/>
</g>
<path d="M758.132 31.9573C758.505 30.5644 758.683 29.1273 758.662 27.6715C758.531 19.0654 751.421 12.1692 742.812 12.2997C739.23 12.3532 735.75 13.6494 733.013 15.949C730.578 17.9939 728.818 20.7499 727.985 23.7921C722.216 23.3408 717.062 27.0744 715.515 32.4327C714.64 32.2472 713.747 32.1604 712.849 32.1745C706.223 32.2746 700.913 37.7054 701.013 44.3292C701.114 50.9536 706.585 56.2219 713.211 56.1216L755.164 55.4881C761.79 55.3879 767.099 49.9563 766.999 43.3326C766.917 37.9132 763.259 33.3361 758.132 31.9573Z" fill="white"/>
<path d="M1344.66 374.308C1345.39 371.585 1345.74 368.776 1345.7 365.93C1345.44 349.106 1331.54 335.625 1314.71 335.88C1307.71 335.985 1300.91 338.519 1295.56 343.014C1290.8 347.012 1287.36 352.399 1285.73 358.346C1274.45 357.464 1264.38 364.763 1261.35 375.238C1259.64 374.875 1257.9 374.705 1256.14 374.733C1243.19 374.929 1232.81 385.545 1233 398.494C1233.2 411.444 1243.9 421.743 1256.85 421.546L1338.86 420.308C1351.81 420.112 1362.19 409.494 1362 396.546C1361.84 385.951 1354.69 377.004 1344.66 374.308Z" fill="white"/>
<path d="M1021.36 466.052C1021.82 464.336 1022.04 462.566 1022.01 460.773C1021.85 450.173 1013.09 441.679 1002.49 441.839C998.074 441.905 993.788 443.502 990.416 446.334C987.417 448.853 985.249 452.248 984.223 455.995C977.117 455.439 970.77 460.038 968.864 466.638C967.786 466.409 966.686 466.302 965.58 466.32C957.419 466.443 950.879 473.132 951.002 481.291C951.126 489.45 957.865 495.939 966.026 495.815L1017.7 495.035C1025.86 494.912 1032.4 488.222 1032.28 480.063C1032.18 473.388 1027.67 467.75 1021.36 466.052Z" fill="white"/>
<path d="M38.065 33.2432V76.7932H47.815V81.9932H22.335V76.7932H32.085V39.5482L21.49 44.8132L18.955 39.7432L32.085 33.2432H38.065ZM23.96 155.993L17.2 148.843V114.393L23.96 107.243H42.29L49.05 114.393V148.843L42.29 155.993H23.96ZM26.495 150.403H39.69L43.395 146.633V116.603L39.755 112.833H26.56L22.855 116.603V146.633L26.495 150.403ZM29.875 127.718H36.375V135.518H29.875V127.718ZM23.96 229.993L17.2 222.843V188.393L23.96 181.243H42.29L49.05 188.393V222.843L42.29 229.993H23.96ZM26.495 224.403H39.69L43.395 220.633V190.603L39.755 186.833H26.56L22.855 190.603V220.633L26.495 224.403ZM29.875 201.718H36.375V209.518H29.875V201.718ZM38.065 255.243V298.793H47.815V303.993H22.335V298.793H32.085V261.548L21.49 266.813L18.955 261.743L32.085 255.243H38.065ZM23.96 377.993L17.2 370.843V336.393L23.96 329.243H42.29L49.05 336.393V370.843L42.29 377.993H23.96ZM26.495 372.403H39.69L43.395 368.633V338.603L39.755 334.833H26.56L22.855 338.603V368.633L26.495 372.403ZM29.875 349.718H36.375V357.518H29.875V349.718ZM23.96 451.993L17.2 444.843V410.393L23.96 403.243H42.29L49.05 410.393V444.843L42.29 451.993H23.96ZM26.495 446.403H39.69L43.395 442.633V412.603L39.755 408.833H26.56L22.855 412.603V442.633L26.495 446.403ZM29.875 423.718H36.375V431.518H29.875V423.718ZM23.96 525.993L17.2 518.843V484.393L23.96 477.243H42.29L49.05 484.393V518.843L42.29 525.993H23.96ZM26.495 520.403H39.69L43.395 516.633V486.603L39.755 482.833H26.56L22.855 486.603V516.633L26.495 520.403ZM29.875 497.718H36.375V505.518H29.875V497.718Z" fill="black"/>
<path d="M98.065 82.2251V125.775H107.815V130.975H82.335V125.775H92.085V88.5301L81.49 93.7951L78.955 88.7251L92.085 82.2251H98.065ZM98.065 156.225V199.775H107.815V204.975H82.335V199.775H92.085V162.53L81.49 167.795L78.955 162.725L92.085 156.225H98.065ZM83.96 278.975L77.2 271.825V237.375L83.96 230.225H102.29L109.05 237.375V271.825L102.29 278.975H83.96ZM86.495 273.385H99.69L103.395 269.615V239.585L99.755 235.815H86.56L82.855 239.585V269.615L86.495 273.385ZM89.875 250.7H96.375V258.5H89.875V250.7ZM98.065 304.225V347.775H107.815V352.975H82.335V347.775H92.085V310.53L81.49 315.795L78.955 310.725L92.085 304.225H98.065ZM83.96 426.975L77.2 419.825V385.375L83.96 378.225H102.29L109.05 385.375V419.825L102.29 426.975H83.96ZM86.495 421.385H99.69L103.395 417.615V387.585L99.755 383.815H86.56L82.855 387.585V417.615L86.495 421.385ZM89.875 398.7H96.375V406.5H89.875V398.7ZM83.96 500.975L77.2 493.825V459.375L83.96 452.225H102.29L109.05 459.375V493.825L102.29 500.975H83.96ZM86.495 495.385H99.69L103.395 491.615V461.585L99.755 457.815H86.56L82.855 461.585V491.615L86.495 495.385ZM89.875 472.7H96.375V480.5H89.875V472.7ZM98.065 526.225V569.775H107.815V574.975H82.335V569.775H92.085V532.53L81.49 537.795L78.955 532.725L92.085 526.225H98.065Z" fill="black"/>
<path d="M167.065 66.231V109.781H176.815V114.981H151.335V109.781H161.085V72.536L150.49 77.801L147.955 72.731L161.085 66.231H167.065ZM152.96 188.981L146.2 181.831V147.381L152.96 140.231H171.29L178.05 147.381V181.831L171.29 188.981H152.96ZM155.495 183.391H168.69L172.395 179.621V149.591L168.755 145.821H155.56L151.855 149.591V179.621L155.495 183.391ZM158.875 160.706H165.375V168.506H158.875V160.706ZM152.96 262.981L146.2 255.831V221.381L152.96 214.231H171.29L178.05 221.381V255.831L171.29 262.981H152.96ZM155.495 257.391H168.69L172.395 253.621V223.591L168.755 219.821H155.56L151.855 223.591V253.621L155.495 257.391ZM158.875 234.706H165.375V242.506H158.875V234.706ZM152.96 336.981L146.2 329.831V295.381L152.96 288.231H171.29L178.05 295.381V329.831L171.29 336.981H152.96ZM155.495 331.391H168.69L172.395 327.621V297.591L168.755 293.821H155.56L151.855 297.591V327.621L155.495 331.391ZM158.875 308.706H165.375V316.506H158.875V308.706ZM152.96 410.981L146.2 403.831V369.381L152.96 362.231H171.29L178.05 369.381V403.831L171.29 410.981H152.96ZM155.495 405.391H168.69L172.395 401.621V371.591L168.755 367.821H155.56L151.855 371.591V401.621L155.495 405.391ZM158.875 382.706H165.375V390.506H158.875V382.706ZM167.065 436.231V479.781H176.815V484.981H151.335V479.781H161.085V442.536L150.49 447.801L147.955 442.731L161.085 436.231H167.065Z" fill="black"/>
<path d="M227.065 158.197V201.747H236.815V206.947H211.335V201.747H221.085V164.502L210.49 169.767L207.955 164.697L221.085 158.197H227.065ZM227.065 232.197V275.747H236.815V280.947H211.335V275.747H221.085V238.502L210.49 243.767L207.955 238.697L221.085 232.197H227.065ZM227.065 306.197V349.747H236.815V354.947H211.335V349.747H221.085V312.502L210.49 317.767L207.955 312.697L221.085 306.197H227.065ZM212.96 428.947L206.2 421.797V387.347L212.96 380.197H231.29L238.05 387.347V421.797L231.29 428.947H212.96ZM215.495 423.357H228.69L232.395 419.587V389.557L228.755 385.787H215.56L211.855 389.557V419.587L215.495 423.357ZM218.875 400.672H225.375V408.472H218.875V400.672ZM227.065 454.197V497.747H236.815V502.947H211.335V497.747H221.085V460.502L210.49 465.767L207.955 460.697L221.085 454.197H227.065ZM212.96 576.947L206.2 569.797V535.347L212.96 528.197H231.29L238.05 535.347V569.797L231.29 576.947H212.96ZM215.495 571.357H228.69L232.395 567.587V537.557L228.755 533.787H215.56L211.855 537.557V567.587L215.495 571.357ZM218.875 548.672H225.375V556.472H218.875V548.672Z" fill="black"/>
<path d="M287.065 23.2468V66.7968H296.815V71.9968H271.335V66.7968H281.085V29.5518L270.49 34.8168L267.955 29.7468L281.085 23.2468H287.065ZM272.96 145.997L266.2 138.847V104.397L272.96 97.2468H291.29L298.05 104.397V138.847L291.29 145.997H272.96ZM275.495 140.407H288.69L292.395 136.637V106.607L288.755 102.837H275.56L271.855 106.607V136.637L275.495 140.407ZM278.875 117.722H285.375V125.522H278.875V117.722ZM287.065 171.247V214.797H296.815V219.997H271.335V214.797H281.085V177.552L270.49 182.817L267.955 177.747L281.085 171.247H287.065ZM272.96 293.997L266.2 286.847V252.397L272.96 245.247H291.29L298.05 252.397V286.847L291.29 293.997H272.96ZM275.495 288.407H288.69L292.395 284.637V254.607L288.755 250.837H275.56L271.855 254.607V284.637L275.495 288.407ZM278.875 265.722H285.375V273.522H278.875V265.722ZM272.96 367.997L266.2 360.847V326.397L272.96 319.247H291.29L298.05 326.397V360.847L291.29 367.997H272.96ZM275.495 362.407H288.69L292.395 358.637V328.607L288.755 324.837H275.56L271.855 328.607V358.637L275.495 362.407ZM278.875 339.722H285.375V347.522H278.875V339.722ZM287.065 393.247V436.797H296.815V441.997H271.335V436.797H281.085V399.552L270.49 404.817L267.955 399.747L281.085 393.247H287.065Z" fill="black"/>
<defs>
<filter id="filter0_d_215_200" x="905" y="534.803" width="110.799" height="85.5757" filterUnits="userSpaceOnUse" color-interpolation-filters="sRGB">
<feFlood flood-opacity="0" result="BackgroundImageFix"/>
<feColorMatrix in="SourceAlpha" type="matrix" values="0 0 0 0 0 0 0 0 0 0 0 0 0 0 0 0 0 0 127 0" result="hardAlpha"/>
<feOffset dx="4" dy="4"/>
<feGaussianBlur stdDeviation="2"/>
<feColorMatrix type="matrix" values="0 0 0 0 0 0 0 0 0 0 0 0 0 0 0 0 0 0 0.75 0"/>
<feBlend mode="normal" in2="BackgroundImageFix" result="effect1_dropShadow_215_200"/>
<feBlend mode="normal" in="SourceGraphic" in2="effect1_dropShadow_215_200" result="shape"/>
</filter>
<filter id="filter1_d_215_200" x="444.408" y="0.772461" width="140.033" height="102.653" filterUnits="userSpaceOnUse" color-interpolation-filters="sRGB">
<feFlood flood-opacity="0" result="BackgroundImageFix"/>
<feColorMatrix in="SourceAlpha" type="matrix" values="0 0 0 0 0 0 0 0 0 0 0 0 0 0 0 0 0 0 127 0" result="hardAlpha"/>
<feOffset dx="4" dy="4"/>
<feGaussianBlur stdDeviation="2"/>
<feColorMatrix type="matrix" values="0 0 0 0 0 0 0 0 0 0 0 0 0 0 0 0 0 0 0.5 0"/>
<feBlend mode="normal" in2="BackgroundImageFix" result="effect1_dropShadow_215_200"/>
<feBlend mode="normal" in="SourceGraphic" in2="effect1_dropShadow_215_200" result="shape"/>
</filter>
</defs>
</svg>
